<svg width="96" height="96" viewBox="0 0 96 96" fill="none" xmlns="http://www.w3.org/2000/svg">
<g clip-path="url(#clip0_332_471)">
<path d="M46.4181 74.797L43.517 74.4307L39.2301 67.2168L39.2646 67.1252C40.2789 64.3951 39.612 60.9307 39.605 60.8961L35.0538 42.1606L35.0901 42.0915C37.4746 37.6197 36.4724 27.1659 36.462 27.0623L36.4568 27.0156L38.7152 20.9369L43.0401 28.2165L45.708 27.5426H50.2938L52.9617 28.2165L57.2866 20.9369L59.5449 27.0156L59.5397 27.0623C59.5294 27.1677 58.5272 37.6197 60.9117 42.0915L60.948 42.1606L56.395 60.9048C56.3898 60.9307 55.7228 64.3969 56.7371 67.1252L56.7717 67.2168L52.4865 74.4307L49.5854 74.797H46.4198H46.4181ZM49.4523 72.6925L51.2148 72.4696L54.204 67.4379L51.8091 63.1977H47.5464L48.5884 61.0931H50.6186L48.0112 56.4762L41.796 67.4414L44.7835 72.4696L46.546 72.6925H49.4506H49.4523ZM41.6422 60.44L41.6509 60.4849C41.6595 60.5281 41.8306 61.4024 41.891 62.643L46.9607 53.8792H49.0635L54.109 62.624C54.1677 61.4266 54.3284 60.5903 54.3492 60.4832L54.3561 60.4469L58.7397 42.3973C57.7963 40.2219 57.29 37.0339 57.233 32.9233C57.1984 30.3695 57.3488 28.1733 57.4196 27.3042L56.8494 25.7663L53.9552 30.6373L50.0346 29.6472H45.9654L42.0448 30.6373L39.1506 25.7663L38.5804 27.3042C38.6512 28.175 38.8016 30.3712 38.767 32.9233C38.7117 37.0357 38.2054 40.2219 37.2603 42.3973L41.6422 60.4382V60.44Z" fill="#595959"/>
<path d="M48.0009 96C47.8453 96 47.6985 95.9395 47.5896 95.8289L0.171061 48.4121C0.0604762 48.3015 0 48.1564 0 48.0009C0 47.8453 0.0604762 47.6985 0.171061 47.5896L47.5879 0.171061C47.6985 0.0604763 47.8436 0 47.9991 0C48.1546 0 48.3015 0.0604763 48.4104 0.171061L95.8272 47.5879C95.9378 47.6985 95.9983 47.8436 95.9983 47.9991C95.9983 48.1546 95.9378 48.3015 95.8272 48.4104L48.4104 95.8272C48.2998 95.9378 48.1546 95.9983 47.9991 95.9983L48.0009 96ZM48.0009 93.2647L93.2647 48.0009L48.0009 2.73525L2.73525 48.0009L47.9991 93.2647H48.0009Z" fill="#595959"/>
</g>
<defs>
<clipPath id="clip0_332_471">
<rect width="96" height="96" fill="white"/>
</clipPath>
</defs>
</svg>
