<svg width="100%" height="100%" viewBox="0 0 64 64" fill="none" xmlns="http://www.w3.org/2000/svg">
    <rect width="64" height="64" fill="black" fill-opacity="0.24" />
    <path
        d="M42.0001 24C42.0001 25.6568 40.6569 27 39 27C37.3432 27 36 25.6568 36 24C36 22.3432 37.3432 21 39 21C40.6569 21 42.0001 22.3432 42.0001 24Z"
        stroke="white" stroke-width="2" />
    <path
        d="M28.0001 32C28.0001 33.6568 26.6569 35 25 35C23.3432 35 22 33.6568 22 32C22 30.3432 23.3432 29 25 29C26.6569 29 28.0001 30.3432 28.0001 32Z"
        stroke="white" stroke-width="2" />
    <path
        d="M42.0001 40C42.0001 41.6568 40.6569 43 39 43C37.3432 43 36 41.6568 36 40C36 38.3432 37.3432 37 39 37C40.6569 37 42.0001 38.3432 42.0001 40Z"
        stroke="white" stroke-width="2" />
    <path d="M27.5999 31.2001L36.6 25.8" stroke="white" stroke-width="2" />
    <path d="M27.5999 33.8L35.9999 38.6001" stroke="white" stroke-width="2" />
</svg>