<svg width="117" height="80" viewBox="0 0 117 80" fill="none" xmlns="http://www.w3.org/2000/svg">
<path d="M34.4978 29.4955L69.9924 23.1868L74.9917 37.9943L36.9974 40.3745L34.4978 29.4955Z" fill="#D3AE5A"/>
<path fill-rule="evenodd" clip-rule="evenodd" d="M114.418 4.50544C112.674 2.19559 110.009 0.277509 107.076 0C105.649 0.102081 104.641 1.39576 103.774 2.509L103.774 2.50946C103.601 2.73122 103.434 2.94581 103.27 3.14238C101.755 4.95103 99.9129 6.17352 98.0133 7.43405C97.5726 7.72648 97.1288 8.02096 96.6853 8.32527C95.4274 9.19372 93.9179 9.4206 92.4276 9.6446C91.9289 9.71954 91.4325 9.79416 90.9483 9.89238C89.2831 10.2237 87.6219 10.6052 85.9618 10.9865C85.2089 11.1594 84.4563 11.3322 83.7036 11.5003C83.2082 11.6101 82.6313 11.7848 82.0163 11.9712L82.0162 11.9712C80.3449 12.4775 78.3913 13.0694 77.0212 12.6756C76.8085 12.6111 76.611 12.5056 76.4127 12.3997C76.3603 12.3717 76.308 12.3438 76.2552 12.3165C72.8814 10.578 70.1107 12.847 68.1549 15.4099L62.7764 15.8996C62.2141 15.8874 61.6497 15.8731 61.0854 15.8588C60.5211 15.8445 59.9567 15.8303 59.3944 15.818C58.987 14.7243 58.3187 13.7938 57.5038 12.9776C56.5748 11.6472 55.0917 11.2881 53.5678 11.182C53.2881 11.1624 53.0307 11.15 52.7905 11.1384C51.4283 11.0726 50.6195 11.0336 49.4279 9.8679C48.4989 8.96191 47.2276 8.47219 45.9401 8.28446C42.5076 7.76399 38.6908 8.05371 35.1249 8.32438L35.1248 8.32439C34.4408 8.37631 33.7661 8.42752 33.105 8.47219C28.5985 8.78235 24.1164 9.33736 19.6506 9.99033C18.3052 10.1868 16.9582 10.3743 15.6111 10.5618L15.611 10.5618L15.6107 10.5619C13.8247 10.8104 12.0383 11.0591 10.2546 11.3289C9.70138 11.4114 9.10551 11.4755 8.48866 11.5418C5.87063 11.8234 2.87482 12.1456 1.16004 14.0877C-1.46401 17.0586 0.622195 24.2167 4.8272 24.4943C6.25152 24.5894 15.0644 23.5411 22.6352 22.6407C28.709 21.9182 33.9833 21.2909 34.0014 21.4253C34.2541 23.4577 34.6534 25.0574 35.5172 26.8286C35.452 26.9592 35.3868 27.0898 35.3216 27.2122C31.4752 28.7793 31.8012 32.8277 33.211 36.0599C33.2599 36.166 29.6335 36.321 29.3564 36.321C28.1463 36.321 26.9645 36.0879 25.7816 35.8545C25.0607 35.7123 24.3395 35.57 23.6112 35.4804C20.7263 35.1212 15.9509 34.7458 13.6691 37.023C12.4372 38.2503 12.5981 40.4491 12.7318 42.2749C12.7661 42.7439 12.7986 43.1883 12.8053 43.5852C12.8053 44.7116 12.7987 45.838 12.7921 46.9643C12.7767 49.5925 12.7613 52.2207 12.8297 54.8488C12.8485 55.5457 12.8476 56.2914 12.8466 57.0656C12.8419 60.6534 12.8365 64.8542 14.7937 67.6469L18.1756 69.9323C17.483 69.6303 33.8548 77.1638 43.1938 79.9879C44.4019 80.0578 45.5783 79.8123 46.7554 79.5667L46.7557 79.5666C47.365 79.4395 47.9744 79.3123 48.5886 79.2288C50.1451 78.9758 51.5956 78.6004 52.1579 76.8618C52.3331 76.3599 52.5104 75.8579 52.6876 75.356C52.8649 74.854 53.0421 74.352 53.2173 73.8501C57.8049 72.639 58.1154 71.5467 59.1448 67.926C59.2601 67.5204 59.3845 67.0831 59.5248 66.6103C62.3042 64.5252 63.9704 65.015 67.2555 65.9807C68.9982 66.493 71.1967 67.1393 74.2587 67.6061C78.5284 66.9412 81.379 65.9567 84.4509 64.8958C86.6206 64.1465 88.9007 63.359 91.8691 62.6191C93.8777 62.2075 95.8983 61.8624 97.9189 61.5172C100.907 61.0067 103.896 60.4961 106.847 59.7706C107.931 59.5665 108.803 58.8646 109.015 57.7872C109.83 53.6817 110.441 49.5027 110.612 45.3156C110.702 43.1853 110.669 41.055 110.474 38.9329C110.431 38.4548 110.397 37.9701 110.362 37.4829V37.4828C110.263 36.0986 110.162 34.6945 109.879 33.3664C109.74 32.7379 109.537 32.1013 109.146 31.5871C108.665 30.9423 107.923 30.526 107.157 30.2811C106.496 30.0717 105.832 29.958 105.18 29.8463C103.799 29.6097 102.471 29.3822 101.33 28.2733C101.004 27.955 100.711 27.6122 100.458 27.2367C99.7168 26.1675 99.2686 24.8942 99.1464 23.6046C99.0079 22.1191 99.4561 20.6173 100.23 19.344C100.434 19.0094 100.662 18.6829 100.947 18.4135C101.925 17.4994 103.441 17.3606 104.574 18.0626C105.056 18.3573 105.453 18.7662 105.852 19.1767C106.215 19.5504 106.579 19.9256 107.01 20.2174C107.899 20.8132 108.934 21.1723 110.001 20.9356C113.147 20.2418 115.681 17.8422 116.602 14.757C116.724 14.3407 116.822 13.9163 116.887 13.4837C117.36 10.3576 116.309 7.00302 114.434 4.5136L114.418 4.50544ZM44.3102 36.77L43.5116 37.0556C42.6608 36.9754 41.8223 36.8268 40.9865 36.6787L40.9865 36.6787C39.781 36.465 38.5813 36.2524 37.3589 36.2476C36.6186 35.2652 36.345 33.9137 36.088 32.644L36.088 32.6439C36.014 32.2785 35.9414 31.92 35.8595 31.5789C35.6802 30.2566 36.0876 30.0363 37.3834 29.8812L44.9133 30.6729C46.0297 30.877 50.0799 30.9341 50.8622 30.7709C50.8704 30.7913 50.8765 30.8137 50.8826 30.8361C50.8887 30.8586 50.8948 30.881 50.903 30.9015C50.4711 31.2442 50.0372 31.587 49.6033 31.9297C49.1693 32.2726 48.7353 32.6154 48.3033 32.9583C47.072 33.9931 45.9451 35.1264 44.816 36.262L44.8159 36.262C44.6448 36.4341 44.4737 36.6063 44.3021 36.7781L44.3102 36.77ZM63.166 33.8228L63.1659 33.8228C62.3937 34.0569 61.6223 34.2906 60.8695 34.5744C60.5924 34.6805 60.3235 34.7866 60.0627 34.909L60 34.9378C59.8053 35.0268 59.5978 35.1216 59.4433 35.2763C59.2885 35.4314 59.2152 35.6109 59.2315 35.8313C59.2474 36.0624 59.341 36.2877 59.4345 36.5128C59.5326 36.7488 59.6306 36.9847 59.6389 37.227C59.652 37.6148 59.3111 37.4151 59.0586 37.2672C58.9976 37.2314 58.9418 37.1987 58.8973 37.1781C58.2101 36.8474 57.1774 36.9296 56.3475 36.9957C56.1737 37.0095 56.0087 37.0227 55.8577 37.0311C54.9857 37.0801 54.0893 37.1454 53.2418 37.3495C52.6106 37.5041 52.0459 37.7807 51.4746 38.0605C51.3525 38.1203 51.2301 38.1802 51.1067 38.2391C50.5036 38.5248 49.7295 38.7207 49.102 38.3697L45.6059 37.1862C45.9954 36.8162 46.3532 36.4759 46.6823 36.1628C49.9019 33.1003 50.3736 32.6517 50.8362 32.6608C50.9156 32.6624 50.9948 32.6775 51.0875 32.6951C51.5432 32.7819 52.327 32.9311 55.0835 31.8482C57.3979 31.1626 59.5574 30.1832 61.6029 28.8609C62.163 28.6096 62.6702 28.3916 63.1711 28.1763L63.1713 28.1762C64.0042 27.8183 64.8198 27.4678 65.8323 26.9837C66.1275 27.4886 66.5084 28.0238 66.9065 28.583L66.9065 28.5831L66.9066 28.5832C67.5637 29.5063 68.2675 30.495 68.709 31.5218C68.7742 31.6687 65.9709 32.8685 65.702 32.9828H65.6938C64.8657 33.3077 64.0153 33.5654 63.166 33.8228ZM37.4406 69.3038L35.4766 68.5856H35.4684L30.7011 66.7981L29.9514 66.4899L29.2017 66.0961C28.9531 65.99 28.5223 65.7288 28.3134 65.0024C28.3134 64.9779 28.099 63.3375 27.8846 61.697C27.6702 60.0564 27.4557 58.4157 27.4557 58.3912L26.5124 65.7288L18.0617 66.1125L17.2712 63.5741C17.206 61.8437 17.149 60.1215 17.0919 58.3912C17.0593 56.1221 17.0186 53.8449 16.9778 51.5759C16.9697 50.6576 16.9636 49.7374 16.9575 48.8171C16.9514 47.8968 16.9452 46.9766 16.9371 46.0583L16.9126 43.5444C16.766 42.2548 17.3201 41.1285 18.0291 40.1898C18.1595 40.0184 18.5099 39.945 18.8848 39.9123C19.3654 39.8692 19.8839 39.902 20.0178 39.9105C20.0361 39.9116 20.0472 39.9123 20.0501 39.9123C20.1723 39.9368 20.2864 39.9531 20.4005 39.9695C28.5742 40.4265 36.7886 43.422 40.9121 45.1442C40.923 45.1469 40.9339 45.1505 40.9447 45.1542C40.9665 45.1614 40.9882 45.1687 41.0099 45.1687C41.1403 45.2258 41.2686 45.285 41.397 45.3442C41.5253 45.4033 41.6537 45.4625 41.7841 45.5197C41.7923 45.5278 41.8086 45.5278 41.8086 45.5278C42.9739 46.0339 43.634 46.3603 43.634 46.3603C44.0298 46.5441 44.4285 46.7249 44.8284 46.9063C45.1035 47.0311 45.3793 47.1562 45.655 47.2826C45.8015 47.4049 45.95 47.5292 46.0985 47.6535C46.2474 47.7781 46.3964 47.9028 46.5433 48.0254C46.6581 48.2906 46.7776 48.5537 46.897 48.8165C47.1928 49.468 47.488 50.1177 47.7086 50.7923C47.7901 51.0617 47.8145 51.3555 47.8145 51.6493L48.3361 55.7059L48.6947 60.1868L48.5072 67.149L47.9857 71.9238C47.9847 71.9678 47.985 72.0125 47.9852 72.0569C47.9871 72.4004 47.9889 72.7354 47.4478 72.6992C47.3117 72.6674 47.1781 72.633 47.0456 72.599C46.9401 72.5719 46.8354 72.545 46.7307 72.5197L37.4406 69.3038Z" fill="white"/>
</svg>
