<svg width="64" height="90" viewBox="0 0 64 90" fill="none" xmlns="http://www.w3.org/2000/svg">
<g clip-path="url(#clip0_1_29)">
<path d="M63.8337 6.38642C63.806 6.2755 63.7783 6.15765 63.7575 6.04673C63.7298 5.99127 63.6951 5.92888 63.6674 5.87342C63.6119 5.67931 63.5565 5.47827 63.501 5.28417C63.4733 5.25644 63.4525 5.22178 63.4247 5.19405C63.3762 5.06233 63.3207 4.92368 63.2722 4.79197C63.1752 4.61172 63.092 4.42455 62.988 4.25124C62.5374 3.5164 61.9897 2.87862 61.2272 2.45575C60.9013 2.30323 60.5686 2.15765 60.2428 2.00514C59.9169 1.92888 59.598 1.85263 59.2722 1.77637C59.0019 1.74171 58.7384 1.68625 58.4681 1.66545C57.657 1.60306 56.8389 1.5476 56.0279 1.49214C55.3901 1.45055 54.7523 1.40895 54.1145 1.37429C53.345 1.3327 52.5755 1.29803 51.806 1.25644C51.4386 1.23564 51.0712 1.22178 50.7107 1.19405C49.761 1.12472 48.8182 0.979144 47.8684 0.993009C46.9187 1.00687 45.962 1.15245 45.0123 1.25644C43.8684 1.38816 42.7246 1.53374 41.5738 1.67238C41.5322 1.68625 41.4975 1.69318 41.4559 1.70705C41.3797 1.70705 41.3034 1.71398 41.2272 1.72091C41.0954 1.73478 40.9637 1.75557 40.8251 1.76944C40.728 1.79024 40.6379 1.8041 40.5409 1.8249C40.3745 1.83876 40.2012 1.83876 40.0348 1.85956C39.4941 1.92195 38.9533 1.97741 38.4126 2.0606C37.8303 2.14379 37.248 2.24777 36.6726 2.3379C35.9377 2.41415 35.196 2.46268 34.4611 2.58053C33.8233 2.68452 33.2341 2.93408 32.735 3.36389C32.6379 3.44015 32.5478 3.50947 32.4507 3.58573C32.1526 3.62732 31.8476 3.71051 31.5495 3.69665C31.0157 3.67585 30.4819 3.59959 29.9481 3.55107C29.7332 3.55107 29.5183 3.54413 29.2965 3.5372C28.6934 3.5164 28.0972 3.45401 27.4941 3.48174C26.78 3.5164 26.066 3.62732 25.3519 3.71744C25.1509 3.73824 24.9568 3.78677 24.7627 3.82143C24.4438 3.86302 24.118 3.90462 23.7991 3.94621C23.702 3.94621 23.6119 3.93235 23.5149 3.94621C22.5027 4.07793 21.4906 4.20271 20.4854 4.34136C20.111 4.38989 19.7367 4.45228 19.3623 4.50774C19.1128 4.52853 18.8701 4.54933 18.6206 4.57706C18.3502 4.60479 18.0798 4.61866 17.8095 4.66025C17.2064 4.74344 16.5963 4.83356 15.9932 4.90982C15.1821 5.0138 14.3641 5.11086 13.553 5.20791C13.5045 5.22871 13.449 5.2495 13.4005 5.2703C13.3589 5.2703 13.3173 5.2703 13.2826 5.2703C12.6171 5.33963 11.9447 5.39508 11.2861 5.48521C10.8424 5.5476 10.4126 5.67238 9.97586 5.76943C9.58765 5.97741 9.16477 6.14378 8.81122 6.40028C7.27222 7.5164 6.37101 9.08312 5.89267 10.8786C5.63617 11.8422 5.57378 12.8544 5.4282 13.8388C5.38661 14.3656 5.34501 14.8925 5.29649 15.4124C5.24796 15.9323 5.18557 16.4523 5.13704 16.9722C5.09545 17.4228 5.06078 17.8734 5.01226 18.324C4.96373 18.74 4.89441 19.1559 4.85281 19.5718C4.79042 20.2374 4.74883 20.9029 4.68643 21.5614C4.6587 21.8873 4.59631 22.2062 4.56858 22.532C4.50619 23.1906 4.45766 23.8561 4.38834 24.5147C4.31902 25.1871 4.23583 25.8526 4.17344 26.525C4.11798 27.1004 4.07638 27.6828 4.02092 28.2651C3.98626 28.6741 3.93773 29.0831 3.89614 29.4921C3.81988 30.2547 3.73669 31.0172 3.66044 31.7798C3.58418 32.5632 3.51486 33.3465 3.44553 34.1368C3.38314 34.7677 3.32075 35.3985 3.25836 36.0363C3.23756 36.2235 3.21676 36.4107 3.2029 36.5978C3.14744 37.194 3.09198 37.7902 3.04345 38.3864C3.02266 38.4418 2.99493 38.4904 2.98799 38.5458C2.9256 39.1767 2.87014 39.8145 2.81468 40.4453C2.78002 40.7919 2.74536 41.1316 2.7107 41.4782C2.6691 41.8942 2.62751 42.3171 2.58591 42.733C2.52352 43.3847 2.46806 44.0432 2.39874 44.6949C2.32941 45.3465 2.24623 45.9912 2.18383 46.6429C2.13531 47.1559 2.10758 47.6689 2.06598 48.1819C2.00359 48.882 1.93427 49.5822 1.86494 50.2824C1.86494 50.3586 1.86494 50.4418 1.85801 50.5181C1.83721 50.5736 1.81642 50.6221 1.79562 50.6775C1.71243 51.5857 1.64311 52.4938 1.55298 53.395C1.45593 54.3656 1.32422 55.3292 1.22023 56.2928C1.13704 57.0554 1.06078 57.8179 0.99146 58.5805C0.908271 59.4956 0.838947 60.4106 0.755758 61.3257C0.728028 61.6169 0.686434 61.9011 0.658704 62.1923C0.61711 62.5943 0.582448 62.9895 0.540853 63.3916C0.506191 63.7382 0.457664 64.0779 0.429935 64.4245C0.38834 64.889 0.353678 65.3534 0.319016 65.8179C0.235827 66.4904 0.138774 67.1628 0.0833143 67.8422C0.0347874 68.5354 0.0139902 69.2356 0.0209226 69.9288C0.0209226 70.421 0.0902467 70.9132 0.124909 71.3985C0.360611 72.9929 1.00532 74.4072 2.03825 75.6411C2.14224 75.7451 2.23929 75.8491 2.34328 75.9531C2.40567 76.0224 2.46806 76.0987 2.53739 76.1611C3.41087 76.9721 4.49926 77.3396 5.60844 77.6515C6.26702 77.8387 6.93253 77.9912 7.59805 78.1576C7.83375 78.2061 8.11104 78.1992 8.06252 78.5666C8.09718 78.7954 8.12491 79.0241 8.15957 79.2529C8.15957 79.9115 8.15957 80.577 8.15957 81.2356V82.9617C8.15957 83.5302 8.43687 84.064 8.89441 84.3968L10.4334 85.5267C10.5443 85.6169 10.6622 85.707 10.7731 85.804C10.7731 86.0051 10.7662 86.1992 10.7731 86.4002C10.787 86.5805 10.8216 86.7538 10.8424 86.934C10.8493 87.1836 10.8632 87.4331 10.8701 87.6827C10.8701 88.3621 10.884 89.0484 10.884 89.7278H25.858C25.858 89.0623 25.858 88.3967 25.858 87.7382C25.8441 87.5163 25.8164 87.2945 25.8164 87.0727C25.8095 86.1576 25.8095 85.2425 25.8026 84.3205C25.858 84.2442 25.9204 84.168 25.9759 84.0917C26.2878 83.8907 26.4819 83.5926 26.4819 83.2321C26.4889 81.603 26.4819 79.9669 26.475 78.3378C26.475 78.2616 26.4611 78.1853 26.4542 78.1091C26.4542 77.8872 26.4542 77.6585 26.4542 77.4366C26.5374 77.3396 26.6067 77.2078 26.7107 77.1593C27.0296 76.9999 27.3623 76.8751 27.6882 76.7364C27.8337 76.681 27.9793 76.6394 28.118 76.577C28.8112 76.2789 29.5045 75.9739 30.1908 75.6689C30.267 75.6481 30.3433 75.6203 30.4126 75.5995C30.8701 75.4054 31.3277 75.2113 31.7852 75.0241C31.8407 75.0033 31.8961 74.9895 31.9516 74.9687C32.2913 74.8231 32.6379 74.6775 32.9776 74.5319C33.0331 74.5111 33.0885 74.4903 33.144 74.4696C33.3589 74.3864 33.5738 74.317 33.7887 74.22C34.4126 73.9496 35.0296 73.6723 35.6535 73.395C35.7298 73.3742 35.806 73.3534 35.8753 73.3257C36.4369 73.0969 36.9984 72.8682 37.5599 72.6394C38.2601 72.3482 38.9672 72.064 39.6604 71.7659C40.1526 71.5579 40.631 71.3292 41.1162 71.1143C41.1925 71.0935 41.2688 71.0727 41.3381 71.0449C41.4143 71.0103 41.4906 70.9756 41.5668 70.934C41.6431 70.9132 41.7194 70.8855 41.7956 70.8647C41.9967 70.7607 42.2046 70.6637 42.4057 70.5597C42.5027 70.5111 42.6067 70.4557 42.7038 70.4072C42.7592 70.3864 42.8078 70.3586 42.8632 70.3378C44.423 69.6793 45.9828 69.0276 47.5426 68.369C47.6188 68.3413 47.6951 68.3136 47.7644 68.2858C47.813 68.265 47.8684 68.2373 47.9169 68.2165C48.0556 68.168 48.1942 68.1195 48.3329 68.0709C48.4854 68.0155 48.6379 67.967 48.7904 67.9115C48.9013 67.8699 49.0192 67.8352 49.1301 67.7936C49.1856 67.7728 49.248 67.7451 49.3034 67.7243C49.5876 67.5995 49.8719 67.4748 50.1561 67.35C50.2185 67.3361 50.2809 67.3222 50.3433 67.2945C51.4941 66.8162 52.6518 66.3378 53.8026 65.8595C54.475 65.5822 55.1544 65.3118 55.6812 64.785C56.4577 64.168 56.9845 63.3708 57.3311 62.4557C57.3866 62.3586 57.4559 62.2685 57.4837 62.1645C57.6084 61.6585 57.7402 61.1455 57.8372 60.6325C57.9135 60.2373 57.9481 59.8283 58.0036 59.4332C58.0244 59.2599 58.0452 59.0865 58.0729 58.9132C58.1076 58.6845 58.1353 58.4626 58.17 58.2339C58.1908 58.0051 58.2116 57.7763 58.2324 57.5545L58.4057 56.1888C58.4265 55.9808 58.4403 55.7729 58.4611 55.5649C58.5027 55.1489 58.5512 54.733 58.5928 54.3171C58.6275 54.1229 58.6552 53.9358 58.6899 53.7417C58.7038 53.6238 58.7246 53.506 58.7315 53.3881C58.7731 52.9791 58.8147 52.5632 58.8563 52.1472C58.8771 52.071 58.8909 51.9947 58.9117 51.9184C58.9464 51.6411 58.988 51.3639 59.0157 51.0866C59.0642 50.6221 59.0989 50.1576 59.1405 49.6931C59.196 49.2217 59.2514 48.7434 59.3138 48.272C59.3346 48.1195 59.3554 47.967 59.3762 47.8145C59.3901 47.6966 59.4109 47.5788 59.4247 47.4609C59.4663 47.1074 59.501 46.7469 59.5426 46.3933C59.5634 46.2963 59.5772 46.2061 59.598 46.1091C59.6258 45.8041 59.6396 45.4921 59.6743 45.1871C59.7367 44.6256 59.8199 44.064 59.8892 43.5025C59.9377 43.1074 59.9932 42.7122 60.0417 42.3101C60.0417 42.2547 60.0417 42.2061 60.0487 42.1507C60.0487 42.0675 60.0487 41.9843 60.0487 41.9011C60.1041 41.4852 60.1596 41.0623 60.215 40.6464C60.2358 40.473 60.2566 40.3067 60.2774 40.1334C60.3398 39.5857 60.4022 39.0311 60.4577 38.4834C60.4715 38.4072 60.4854 38.3309 60.5062 38.2547C60.5686 37.5961 60.631 36.9375 60.6934 36.272C60.7142 36.1542 60.728 36.0363 60.7488 35.9185C60.7835 35.655 60.8112 35.3847 60.8459 35.1212C60.8667 34.9479 60.8944 34.7815 60.9152 34.6082C60.9291 34.5528 60.9429 34.4973 60.9568 34.4349C60.9915 34.1576 61.0331 33.8803 61.0608 33.603C61.1024 33.1802 61.144 32.7503 61.1786 32.3275C61.241 31.7937 61.3034 31.2668 61.3589 30.733C61.3727 30.6013 61.3866 30.4696 61.4005 30.3379C61.4837 29.7348 61.5738 29.1386 61.6431 28.5354C61.7263 27.8214 61.7887 27.1074 61.8719 26.3933C61.9412 25.7694 62.0244 25.1524 62.1006 24.5354C62.1076 24.5008 62.1145 24.4661 62.1214 24.4315C62.1492 24.175 62.1769 23.9115 62.2046 23.655C62.2462 23.246 62.2948 22.8439 62.3363 22.4349C62.4057 21.8595 62.475 21.2911 62.5374 20.7226C62.579 20.3968 62.6136 20.071 62.6552 19.7521C62.7176 19.2114 62.78 18.6706 62.8424 18.1299C62.8909 17.6932 62.9533 17.2634 63.0019 16.8266C63.0435 16.4315 63.0781 16.0294 63.1266 15.6342C63.189 15.0866 63.2722 14.5459 63.3346 13.9982C63.3901 13.5545 63.4178 13.1039 63.4733 12.6602C63.5357 12.0987 63.6188 11.5441 63.6882 10.9895C63.7644 10.2478 63.8337 9.506 63.91 8.77116C64.0279 7.96701 63.9724 7.16978 63.806 6.37949L63.8337 6.38642ZM31.9585 18.7469C31.8892 19.246 31.8129 19.7382 31.7506 20.2374C31.6882 20.7296 31.6327 21.2218 31.5703 21.714C31.5149 22.1368 31.4525 22.5666 31.4039 22.9895C31.3623 23.3847 31.3415 23.7798 31.293 24.175C31.2098 24.8058 31.1128 25.4297 31.0296 26.0536C30.988 26.3587 30.9811 26.6706 30.9395 26.9826C30.8632 27.6065 30.7662 28.2304 30.6899 28.8613C30.6136 29.499 30.5513 30.1368 30.4681 30.7677C30.3987 31.3153 30.3155 31.863 30.2462 32.4107C30.1977 32.7989 30.1561 33.1871 30.1076 33.5753C30.0244 34.2963 29.9412 35.0242 29.8511 35.7451C29.761 36.4869 29.657 37.2287 29.5599 37.9704C29.4837 38.5666 29.4074 39.1698 29.3381 39.7659C29.3173 39.9392 29.2965 40.1195 29.2757 40.2928C29.1994 40.8543 29.1232 41.4159 29.0469 41.9774C29.0539 42.0328 29.0746 42.0814 29.0746 42.1368C28.9984 42.733 28.9152 43.3361 28.8389 43.9323C28.7974 44.2581 28.7627 44.584 28.7211 44.9098C28.6726 45.3049 28.624 45.7001 28.5686 46.0952C28.4923 46.7122 28.4022 47.3361 28.3259 47.9531C28.2497 48.5701 28.1942 49.1871 28.118 49.8041C28.0556 50.2893 27.9724 50.7746 27.9031 51.2599C27.8129 51.9254 27.7367 52.584 27.6535 53.2495C27.6396 53.3257 27.6258 53.395 27.6119 53.4713C27.6188 53.5268 27.6327 53.5753 27.6396 53.6307C27.5218 54.4904 27.397 55.343 27.293 56.2027C27.1821 57.1177 27.1058 58.0398 27.0019 58.9618C26.9187 59.6827 26.8285 60.4106 26.7315 61.1316C26.6136 61.9982 26.4889 62.8578 26.371 63.7243C26.3363 63.9947 26.3155 64.272 26.2809 64.5424C26.2393 64.9236 26.1838 65.298 26.1353 65.6793C26.0937 66.0051 26.066 66.3309 26.0244 66.6567C25.9689 67.0935 25.8996 67.5371 25.8303 67.9739C25.7679 68.6117 25.7263 69.2564 25.6292 69.8942C25.4074 71.3569 25.0885 72.9098 24.215 74.1853C23.709 74.9271 22.9464 75.5995 22.0105 75.8768C20.8112 76.2304 19.092 75.8422 17.8719 75.655C16.9707 75.5163 16.0209 75.2113 15.0989 75.239L11.1128 74.3794C10.4473 74.2269 9.78175 74.0883 9.12318 73.9219C8.01399 73.6377 6.9256 73.3049 6.05212 72.577C5.98279 72.5215 5.9204 72.4522 5.85801 72.3898C5.75402 72.2928 5.65697 72.2027 5.55299 72.1056C4.52006 70.9895 3.87534 69.707 3.63964 68.265C3.60498 67.8214 3.54259 67.3777 3.53565 66.934C3.53565 66.3032 3.54952 65.6723 3.59805 65.0415C3.64657 64.4314 3.75056 63.8214 3.83375 63.2113C3.86841 62.7884 3.90307 62.3725 3.94467 61.9496C3.97933 61.6377 4.02092 61.3257 4.05558 61.0138C4.09718 60.6533 4.13184 60.2928 4.17344 59.9323C4.20117 59.6689 4.24969 59.4124 4.27049 59.1489C4.35368 58.324 4.423 57.4921 4.50619 56.6671C4.57552 55.9739 4.65177 55.2876 4.73496 54.5943C4.83895 53.7209 4.97066 52.8474 5.06772 51.9739C5.16477 51.1559 5.23409 50.3309 5.31035 49.5129C5.33115 49.4644 5.35195 49.4158 5.37274 49.3673C5.37274 49.298 5.37274 49.2217 5.37967 49.1524C5.449 48.5216 5.51832 47.8838 5.58071 47.2529C5.62924 46.7885 5.65004 46.324 5.69857 45.8595C5.76096 45.2703 5.84415 44.6879 5.91347 44.0987C5.98279 43.5094 6.03825 42.9132 6.10065 42.324C6.14224 41.9427 6.18383 41.5684 6.22543 41.1871C6.26009 40.8751 6.29475 40.5632 6.32941 40.2512C6.39181 39.6758 6.44727 39.1074 6.50273 38.532C6.50273 38.4834 6.53739 38.4349 6.55818 38.3864C6.61364 37.8457 6.66217 37.3119 6.71763 36.7711C6.73149 36.6048 6.75229 36.4315 6.77309 36.2651C6.83548 35.6966 6.89787 35.1212 6.96026 34.5528C7.03652 33.8457 7.09891 33.1316 7.17517 32.4245C7.25143 31.7313 7.33461 31.045 7.41087 30.3587C7.45246 29.9912 7.50099 29.6169 7.53565 29.2495C7.59111 28.7226 7.63271 28.2027 7.68817 27.6758C7.75749 27.0658 7.84068 26.4627 7.90307 25.8595C7.96546 25.2634 8.02092 24.6602 8.08331 24.064C8.11798 23.7729 8.17344 23.4748 8.20117 23.1836C8.26356 22.5805 8.30515 21.9843 8.36754 21.3812C8.40914 21.0069 8.47846 20.6325 8.52699 20.2512C8.57552 19.8422 8.61018 19.4401 8.65177 19.0311C8.7003 18.5597 8.76269 18.0883 8.81122 17.6238C8.85974 17.1524 8.90134 16.6741 8.94293 16.1958C9.09545 15.3015 9.24796 14.7122 9.49753 13.8457C9.97586 12.2235 10.6691 11.2044 12.2081 10.1923C13.6015 9.27723 15.1821 9.43668 16.7835 9.5268C18.2948 9.60999 19.702 9.85955 21.2064 9.94274V9.9774C22.6552 10.0745 24.0209 10.1368 25.4421 10.331C27.1197 10.5597 28.7974 10.7122 30.0175 11.9323C31.3693 13.2772 31.8407 14.4627 31.9377 16.2235C31.9932 17.1663 32.0071 17.7972 31.9377 18.7469H31.9585Z" fill="white"/>
<path d="M17.4787 36.1399C14.581 35.8759 11.9297 38.9672 11.5601 43.0439C11.1906 47.1207 13.2377 50.6401 16.1354 50.8982C19.0331 51.1563 21.6845 48.0709 22.054 43.9942C22.4236 39.9175 20.3764 36.398 17.4787 36.1399ZM19.432 43.7596C19.2443 45.795 17.9245 47.3436 16.4756 47.2145C15.0268 47.0855 14.0003 45.3257 14.188 43.2844C14.3757 41.2431 15.6955 39.7004 17.1443 39.8295C18.5932 39.9585 19.6197 41.7183 19.432 43.7596Z" fill="#D3AE5A"/>
<ellipse cx="16.6008" cy="43.5187" rx="3.23512" ry="4.6216" fill="#D3AE5A"/>
</g>
<defs>
<clipPath id="clip0_1_29">
<rect width="64" height="90" fill="white"/>
</clipPath>
</defs>
</svg>
