<svg width="86" height="80" viewBox="0 0 86 80" fill="none" xmlns="http://www.w3.org/2000/svg">
<g clip-path="url(#clip0_1_10)">
<path d="M5.85273 0H80.1469C83.3796 0 86 2.63535 86 5.88645V55.2881C86 58.5392 83.3796 61.1746 80.1469 61.1746H57.2527C57.2697 61.2416 57.2866 61.309 57.3036 61.376C57.3324 61.4379 57.3609 61.4995 57.3898 61.5615C57.5639 62.0165 57.7383 62.4719 57.9124 62.927C57.942 62.9897 57.972 63.0521 58.0017 63.1148C58.3802 64.0872 58.7584 65.0596 59.1369 66.0321C59.1673 66.0971 59.1981 66.1622 59.2285 66.2273C59.2397 66.2702 59.2505 66.3132 59.2617 66.3562C59.3048 66.4612 59.3479 66.5657 59.391 66.6707C59.4642 66.8689 59.5374 67.0668 59.6105 67.2651C59.639 67.3267 59.6675 67.3887 59.6956 67.4502C59.7133 67.494 59.7284 67.5389 59.7403 67.5846C59.7688 67.6474 59.7977 67.7101 59.8262 67.7728C59.9606 68.1214 60.0953 68.4699 60.2301 68.8185C60.2586 68.8812 60.2867 68.9443 60.3152 69.0071C60.3252 69.05 60.3387 69.0915 60.3553 69.1325C60.3868 69.1995 60.4184 69.2665 60.4504 69.3339C60.4766 69.4207 60.5024 69.507 60.5285 69.5938C60.5586 69.6584 60.5882 69.7231 60.6183 69.7874C60.629 69.8312 60.6402 69.8745 60.6518 69.9179C60.6953 70.0225 60.7388 70.127 60.7823 70.232C60.7219 70.196 60.6822 70.151 60.6614 70.0984C60.6826 70.151 60.7222 70.196 60.7823 70.232C60.8008 70.2773 60.8197 70.3226 60.8385 70.3675C60.8682 70.4318 60.8982 70.4961 60.9279 70.5604C60.9379 70.6049 60.9479 70.6494 60.9587 70.6936C61.0014 70.7978 61.0442 70.9023 61.0873 71.0065C61.1489 71.1575 61.2101 71.309 61.2717 71.4604C61.3156 71.5684 61.3595 71.6761 61.4034 71.7841C61.4134 71.8298 61.4273 71.8744 61.445 71.9177C61.4766 71.9832 61.5078 72.0483 61.5394 72.1137C61.5498 72.1551 61.5625 72.1954 61.5779 72.2353C61.6206 72.3453 61.6637 72.4553 61.7065 72.5649C61.8825 72.9219 61.884 73.3045 61.884 73.6918C61.8844 75.6413 61.8925 77.5908 61.8975 79.5403C61.9117 79.5585 61.9422 79.5872 61.9379 79.5934C61.9152 79.6282 61.8848 79.6573 61.8567 79.6886L61.812 79.6762C61.8409 79.7634 61.8701 79.8509 61.8994 79.938C61.6714 79.9582 61.4435 79.9957 61.2155 79.9961C57.2423 79.9996 53.2691 79.9988 49.296 79.9973C49.1169 79.9973 48.9378 79.9841 48.7584 79.9772C48.6113 79.8343 48.4384 79.8281 48.2647 79.8377C48.4384 79.8281 48.6117 79.8343 48.7588 79.9772C48.5539 79.9853 48.3491 80 48.1442 80C42.2422 79.9992 36.3402 79.9977 30.4381 79.9938C30.1824 79.9938 29.9268 79.9702 29.6711 79.9578C28.9845 79.9655 28.2956 80.06 27.6132 79.9059C27.6267 79.8443 27.6406 79.7827 27.6541 79.7212C27.6714 79.6433 27.6883 79.5655 27.7057 79.4877C27.6887 79.5655 27.6714 79.6433 27.6541 79.7212C27.5909 79.7134 27.5274 79.7057 27.4646 79.6983C27.4353 78.9083 27.3984 78.1183 27.3818 77.3279C27.3776 77.1319 27.4392 76.9344 27.4708 76.7373C27.5408 76.745 27.6113 76.7524 27.6814 76.7601C27.6113 76.7528 27.5412 76.745 27.4708 76.7377C27.5551 76.6893 27.636 76.6075 27.7241 76.5994C27.9525 76.5773 28.1839 76.5855 28.4138 76.5851C33.4525 76.5797 38.4908 76.5762 43.5295 76.5684C43.9377 76.5677 44.3454 76.5409 44.7536 76.5262C44.7556 76.247 44.7556 75.9674 44.7594 75.6882C44.771 74.8253 44.7837 73.9625 44.796 73.1001C44.7055 72.8367 44.625 72.5695 44.5222 72.3112C43.9966 70.9887 43.4656 69.6685 42.9361 68.3471C42.8964 68.2503 42.8568 68.1539 42.8171 68.0571L42.7921 68.0315C42.7539 67.9324 42.7162 67.8332 42.6785 67.7341C42.0955 66.2865 41.5125 64.8389 40.9291 63.3913C40.9337 63.3495 40.3723 62.0579 39.991 61.1742H5.85312C2.62043 61.1742 3.57321e-07 58.5388 3.57321e-07 55.2877V5.88645C3.57321e-07 2.63535 2.62043 0 5.85312 0H5.85273ZM61.5852 72.5308C61.5852 72.5308 61.5783 72.5366 61.5698 72.5443L61.5852 72.5308ZM42.3015 79.5628C42.1956 79.6065 42.0885 79.6472 41.9838 79.6941C42.0881 79.6472 42.1956 79.6065 42.3015 79.5628C42.3812 79.545 42.4605 79.5272 42.5398 79.5093C42.4605 79.5272 42.3812 79.545 42.3015 79.5624V79.5628ZM42.6138 79.5426C42.6092 79.5403 42.6038 79.5384 42.5991 79.5361C42.6041 79.5384 42.6092 79.5403 42.6138 79.5426ZM3.69671 55.117C3.69671 56.3148 4.66208 57.2856 5.85312 57.2856H72.7154C73.9064 57.2856 74.8718 56.3148 74.8718 55.117V5.88645C74.8718 4.68864 73.9064 3.71776 72.7154 3.71776H5.85273C4.6617 3.71776 3.69632 4.68864 3.69632 5.88645V55.117H3.69671Z" fill="white"/>
<ellipse cx="13.5103" cy="14" rx="4" ry="4" fill="#D3AE5A"/>
<ellipse cx="25.5103" cy="14" rx="4" ry="4" fill="#D3AE5A"/>
<ellipse cx="37.5103" cy="14" rx="4" ry="4" fill="#D3AE5A"/>
</g>
<defs>
<clipPath id="clip0_1_10">
<rect width="86" height="80" fill="white" transform="matrix(-1 0 0 1 86 0)"/>
</clipPath>
</defs>
</svg>
