<svg width="78" height="80" viewBox="0 0 78 80" fill="none" xmlns="http://www.w3.org/2000/svg">
<g clip-path="url(#clip0_1_4)">
<path d="M57.1966 0H6.80339C3.04045 0 0 3.03 0 6.77V73.22C0 76.96 3.04045 80 6.80339 80H26.3707L35.7328 79.93C35.1709 79.36 34.8498 78.72 34.8498 78.03C34.8498 77.08 35.4519 76.21 36.4553 75.53H15.4331C14.0483 75.53 12.9244 74.41 12.9244 73.03V6.77C12.9244 5.39 14.0483 4.27 15.4331 4.27H57.1966C58.5814 4.27 59.7052 5.39 59.7052 6.77V47.63C61.2807 44.72 63.5384 35.17 63.5384 35.17C63.7792 34.72 63.8796 34.08 64 33.55V6.77C64 3.03 60.9596 0 57.2067 0H57.1966Z" fill="white"/>
<ellipse cx="37" cy="15" rx="4" ry="4" fill="#D3AE5A"/>
<g clip-path="url(#clip1_1_4)">
<path d="M77.14 18.57C76.89 18.22 76.71 17.88 76.82 17.51C76.87 17.32 76.68 17.07 76.6 16.85C76.51 16.76 76.42 16.66 76.33 16.57C75.77 16.05 75.08 16 74.39 16C73.75 16 73.64 16.6 73.32 16.97C73.16 17.07 73.02 17.21 72.85 17.27C70.39 18.15 69.96 20.72 69.47 22.96L68.48 27.25C66.95 33.64 65.19 40 63.43 46.33C63.41 46.4 63.39 46.48 63.38 46.56C63.26 47.09 63.17 47.73 62.92 48.18C62.92 48.18 60.95 51.83 59.41 54.68C62.43 54.25 65.74 53.53 68.78 52.34C68.84 50.82 68.88 49.84 68.88 49.84C70.36 44.85 71.8 39.85 73.3 34.87C73.93 32.78 74.64 30.71 75.36 28.63L77.85 20.87C78.13 19.85 77.72 19.36 77.15 18.57H77.14Z" fill="white"/>
<path d="M57.61 57.99C52.8 59.07 47.15 62.32 45.67 71.39C45.67 71.39 45.67 74.04 44.17 75.52C44.16 75.53 44.14 75.55 44.13 75.56C43.82 75.76 43.51 75.97 43.21 76.18C42.78 76.37 42.28 76.48 41.69 76.48C37.71 76.48 38.18 80.73 42.96 79.88H53.9C57.06 79.88 60.12 78.55 62.53 76.49C63.38 75.76 64.15 74.95 64.81 74.07C67.51 70.46 67.86 66.1 68.22 61.77C68.39 59.7 68.53 57.51 68.63 55.59C64.91 56.88 61 57.57 57.65 57.93C57.63 57.97 57.61 58 57.61 58V57.99Z" fill="#D3AE5A"/>
</g>
</g>
<defs>
<clipPath id="clip0_1_4">
<rect width="78" height="80" fill="white"/>
</clipPath>
<clipPath id="clip1_1_4">
<rect width="38.93" height="64" fill="white" transform="translate(39 16)"/>
</clipPath>
</defs>
</svg>
