<svg width="141" height="88" viewBox="0 0 141 88" fill="none" xmlns="http://www.w3.org/2000/svg">
<g clip-path="url(#clip0_1_22)">
<path d="M79 12C82.3169 12 85 9.3169 85 6C85 2.6831 82.3169 0 79 0C75.6831 0 73 2.6831 73 6C73 9.3169 75.6831 12 79 12Z" fill="#D3AE5A"/>
<path d="M99.0859 22.3757L89.6749 19.8419C88.3758 19.4922 87.1089 20.499 87.1562 21.8434L87.5075 31.8373C87.5404 32.7728 88.2177 33.5603 89.1377 33.7328L94.4643 34.7315C94.5574 34.749 94.6515 34.7598 94.746 34.7639L102.638 35.107C103.775 35.1565 104.724 34.2476 104.724 33.1089V31.0205C104.724 30.6484 104.621 30.2836 104.425 29.9673L100.266 23.2537C99.9986 22.8217 99.5766 22.5078 99.0859 22.3757Z" fill="#D3AE5A"/>
<path fill-rule="evenodd" clip-rule="evenodd" d="M103.3 32.7742C102.608 32.5159 101.574 32.2812 100.634 32.0678C100.128 31.9529 99.649 31.8441 99.2653 31.7412C99.1302 31.7015 98.2169 27.5697 98.193 27.228C98.1851 27.0532 98.1692 26.8704 98.0818 26.7115C97.8324 26.2499 96.9418 26.1654 96.2975 26.1043C96.1211 26.0875 95.9632 26.0725 95.842 26.052C95.5128 25.9992 95.1835 25.9472 94.8545 25.8953L94.8537 25.8951C94.1433 25.7829 93.434 25.6709 92.7285 25.5514C92.522 25.5197 92.3234 25.5276 92.1407 25.615C91.9978 25.6865 91.8548 25.7819 91.8469 25.9567C91.8469 26.1361 91.9761 26.1605 92.1011 26.1841C92.131 26.1897 92.1608 26.1953 92.1884 26.203C92.6913 26.3595 93.1959 26.5125 93.6998 26.6653L93.7001 26.6654L93.7008 26.6656C94.271 26.8385 94.8403 27.0112 95.4052 27.1883C96.0882 27.4028 96.3265 27.7127 96.3583 28.404C96.39 29.0555 96.4139 29.7071 96.4298 30.3586C96.4298 30.399 96.4354 30.4677 96.4421 30.5495C96.4619 30.7893 96.4909 31.1418 96.4139 31.2247C96.3365 31.308 96.0052 31.2799 95.7771 31.2606C95.7006 31.2541 95.6357 31.2486 95.5958 31.2486C94.9951 31.2415 94.396 31.2073 93.797 31.1731C93.0576 31.131 92.3184 31.0888 91.5768 31.0976C90.5443 31.1135 89.75 31.0976 89.1225 30.16C88.6301 29.421 88.3362 28.5549 88.0662 27.7127C87.7167 26.6082 87.4228 25.2495 87.9232 24.145C88.8038 22.204 91.949 23.0055 93.6501 23.439L93.6503 23.4391C93.7597 23.467 93.8631 23.4933 93.9596 23.5173C94.634 23.6867 95.3102 23.926 95.9912 24.1671C97.3236 24.6387 98.6747 25.1169 100.067 25.0906C102.426 25.0429 102.426 20.6648 100.441 19.9099L99.1382 19.4094C99.1382 19.4094 99.0826 19.4094 99.0588 19.4014C97.5099 18.6863 93.5307 17.558 91.966 17.2243C91.547 17.136 91.1327 17.0114 90.7179 16.8866C89.9377 16.6519 89.1556 16.4166 88.3362 16.4217C87.0972 16.4217 85.9137 16.978 84.8732 17.5977C84.4827 17.8269 84.1024 18.0732 83.7234 18.3187L83.7231 18.3188C83.5241 18.4477 83.3254 18.5764 83.1258 18.7022C83.0296 18.7636 82.9307 18.8289 82.8296 18.8956L82.8293 18.8958C82.3545 19.2093 81.8307 19.5551 81.307 19.6795C80.7739 19.8096 80.2301 19.583 79.7193 19.3701C79.606 19.3229 79.4944 19.2764 79.3849 19.2346C79.0195 19.0995 78.6462 18.9565 78.3047 18.7737C77.6216 18.4161 77.0815 18.146 76.327 18.2095L75.6201 18.4956C70.4097 21.0065 64.5639 24.3914 59.5918 27.2995C54.6945 30.504 50.298 30.1041 45.4342 29.6616C43.6166 29.4963 41.7338 29.325 39.7353 29.3336C39.5605 26.0123 39.1554 22.4526 38.6471 19.1789C40.323 18.1778 41.2523 17.0971 41.1332 16.0721C40.8155 13.2752 32.9443 11.8768 23.5561 12.9574C14.1679 14.038 6.821 17.1766 7.13871 19.9815C7.45641 22.7784 15.3276 24.1768 24.7157 23.0962C25.9389 22.9532 27.1303 22.7784 28.274 22.5718C27.4957 22.7148 34.231 43.644 34.8505 45.4238L34.8987 45.5624C35.3838 46.9593 36.2323 49.4026 37.8608 49.3411C38.2658 49.3263 38.673 49.2438 39.0718 49.1629C40.175 48.9392 41.2146 48.7284 41.9671 50.0006C42.3881 51.1925 42.3881 52.6227 40.8155 53.1789C37.3849 53.7723 34.8419 54.3979 31.8445 55.1353L31.8444 55.1353L31.8443 55.1353C28.1796 56.0369 23.8356 57.1055 16.3601 58.4867L15.7485 52.5273L15.8099 52.5221L15.8101 52.5221C16.0686 52.4999 16.3329 52.4773 16.5904 52.4479C24.9461 51.4864 31.459 48.4432 31.1413 45.6384C30.8236 42.8414 23.7865 41.3476 15.4308 42.3091C7.08311 43.2785 0.57015 46.3217 0.887855 49.1266C1.02288 50.3184 2.38901 51.2719 4.54147 51.8996C4.48151 52.9635 4.72369 54.0787 4.96567 55.1931C5.33277 56.8836 5.69942 58.5721 5.01008 60.0758C4.1761 61.6014 6.16971 65.9557 8.07594 65.0102C8.23368 64.8735 8.42563 64.7579 8.61888 64.6414C9.07755 64.365 9.54356 64.0842 9.57709 63.5084C9.59298 63.1508 9.79949 62.9522 10.1648 62.8886C11.0906 62.7327 11.9423 62.3943 12.7962 62.055C13.4223 61.8063 14.0495 61.5571 14.708 61.3789C15.407 61.1882 16.2012 61.077 16.9081 61.3154C18.0042 61.6888 19.2909 61.8001 20.1328 60.8227C21.5562 60.028 24.7563 59.3768 27.0702 58.9059C27.5325 58.8118 27.9594 58.725 28.3296 58.6456L35.057 57.6921C36.4513 57.55 37.4018 57.4262 38.0592 57.3405C39.0975 57.2052 39.4043 57.1653 39.5732 57.2992C39.6441 57.3554 39.6907 57.4421 39.7569 57.5653C39.9805 57.9813 40.4271 58.8125 42.7852 60.2824C44.1414 61.6901 46.2934 61.9509 48.4158 62.2081H48.4159C49.9354 62.3923 51.4398 62.5746 52.6262 63.1747C50.2099 65.0905 51.6671 65.5757 53.465 66.1744C54.6871 66.5813 56.0667 67.0407 56.4942 68.0375C57.3361 69.3088 61.0136 69.3962 62.475 68.7526C62.8453 69.4225 63.2663 70.1392 63.6141 70.7313L63.6142 70.7316L63.6143 70.7317C63.9678 71.3335 64.2457 71.8065 64.3177 71.9706C65.0212 73.5075 64.9663 75.3011 64.9123 77.0647V77.0648C64.8767 78.228 64.8415 79.3781 65.0246 80.4329C65.0405 80.5282 65.0564 80.6236 65.0802 80.7189C65.0802 80.7507 65.0881 80.7905 65.0961 80.8222L65.1199 80.8699C66.1842 84.668 72.8401 87.592 80.9099 87.592C89.7262 87.592 96.8666 84.1039 96.8666 79.7972C96.8666 75.4906 89.7182 72.0024 80.9099 72.0024C76.6526 72.0024 72.7925 72.8209 69.9331 74.1478C69.7716 72.954 69.4767 71.75 69.1876 70.5694L69.1875 70.5691C69.036 69.9503 68.886 69.3379 68.7576 68.7367C68.2255 66.2497 67.5265 63.8183 66.7799 61.3869C66.3351 59.9407 65.803 58.0973 67.6218 57.3743C70.3379 56.301 73.0541 55.4555 75.8042 54.5993L75.8045 54.5992C76.5767 54.3588 77.3516 54.1175 78.1299 53.8702C79.6152 53.3934 81.0846 52.8293 82.4269 52.0109C83.3782 51.4356 84.0603 50.6202 84.7539 49.7912L84.754 49.791C85.0854 49.3949 85.4194 48.9957 85.7866 48.618C87.0098 47.3626 89.6944 47.9824 91.1161 48.5703C95.3496 50.3025 99.4718 47.0368 102.387 44.0889C104.444 44.0889 106.628 44.7008 108.828 45.4C110.456 49.1742 116.914 51.995 124.65 51.995C133.617 51.995 140.877 48.2128 140.877 43.5486C140.877 38.8844 133.609 35.1023 124.65 35.1023C117.104 35.1023 110.782 37.7879 108.963 41.4191C108.924 41.5066 107.43 40.9583 107.256 40.8868C106.962 40.7676 106.628 40.6166 106.406 40.3783C106.091 40.0256 106.179 39.5807 106.264 39.1575L106.279 39.0831C106.509 37.8833 106.382 36.8265 105.953 35.6744L105.953 35.6743C105.905 35.5551 105.858 35.436 105.786 35.3327C105.476 34.9116 105.381 34.6732 105.492 34.1329C105.778 32.798 105.897 31.3836 105.492 30.0805C105.19 29.1111 104.555 28.2053 103.673 27.673C103.115 27.3356 102.411 27.1599 101.731 26.9905C101.434 26.9165 101.143 26.8437 100.87 26.7592C100.631 26.6877 100.369 26.7989 100.282 27.0294C100.091 27.522 100.195 28.0305 100.345 28.4993C100.414 28.7167 100.643 28.7323 100.87 28.7477C100.958 28.7537 101.046 28.7596 101.124 28.7774C101.238 28.8076 101.357 28.824 101.477 28.8405C101.516 28.8458 101.554 28.8511 101.592 28.8569C103.673 29.1429 103.872 33.0125 103.284 32.7742H103.3ZM42.8091 60.2665V60.2347C42.817 60.2506 42.8329 60.2586 42.8488 60.2665H42.8091ZM34.9991 15.9624C35.1857 17.5996 30.4722 19.4818 24.4712 20.1663C18.4702 20.8508 13.4542 20.0785 13.2676 18.4412C13.081 16.8039 17.7945 14.9217 23.7955 14.2372C29.7965 13.5527 34.8125 14.3251 34.9991 15.9624ZM125.319 45.1423C132.455 45.3191 138.284 43.6817 138.338 41.4852C138.393 39.2887 132.652 37.3648 125.516 37.188C118.38 37.0113 112.551 38.6486 112.497 40.8451C112.443 43.0416 118.183 44.9655 125.319 45.1423Z" fill="white"/>
</g>
<defs>
<clipPath id="clip0_1_22">
<rect width="141" height="88" fill="white"/>
</clipPath>
</defs>
</svg>
