<svg width="144" height="144" viewBox="0 0 144 144" fill="none" xmlns="http://www.w3.org/2000/svg">
<path d="M131.321 63.0014C133.318 76.1648 130.88 89.6185 124.391 101.244C117.901 112.87 107.73 122.007 95.4772 127.216C83.2247 132.426 69.5875 133.412 56.7128 130.02C43.8382 126.628 32.4575 119.05 24.3628 108.479C16.2682 97.9082 11.9193 84.9453 12.0011 71.6316C12.0828 58.3178 16.5905 45.4094 24.8144 34.9389C33.0383 24.4684 44.5112 17.0306 57.4265 13.7968C70.3419 10.5629 83.9659 11.7167 96.1535 17.0764" stroke="#D3AE5A" stroke-width="12" stroke-linecap="round"/>
<path d="M54 66L70.9706 82.9706" stroke="#D3AE5A" stroke-width="12" stroke-linecap="square"/>
<path d="M126 27.9412L70.9706 82.9706" stroke="#D3AE5A" stroke-width="12" stroke-linecap="square"/>
</svg>
