<svg width="72" height="72" viewBox="0 0 72 72" fill="none" xmlns="http://www.w3.org/2000/svg">
<mask id="mask0_10_154" style="mask-type:luminance" maskUnits="userSpaceOnUse" x="6" y="6" width="60" height="60">
<path d="M66 6H6V66H66V6Z" fill="white"/>
</mask>
<g mask="url(#mask0_10_154)">
<path d="M35.9802 26.001C30.459 26.0106 25.9902 30.4968 25.9998 36.0186C26.0106 41.5416 30.4974 46.0098 36.018 45.999C41.541 45.9882 46.0104 41.5032 45.9996 35.9802C45.9888 30.4572 41.502 25.9902 35.9802 26.001Z" fill="#595959"/>
<path d="M65.9964 35.9424C65.9808 27.7962 65.9442 26.7756 65.7924 23.5764C65.6406 20.3826 65.1294 18.204 64.3842 16.2972C63.6132 14.325 62.5848 12.6552 60.915 10.9902C59.2452 9.32704 57.5694 8.30284 55.5942 7.54144C53.685 6.80284 51.504 6.29944 48.3108 6.16144C45.111 6.01924 44.0898 5.98804 35.9424 6.00364C27.7968 6.01924 26.7756 6.05404 23.5758 6.20764C20.3838 6.35824 18.2034 6.86944 16.2984 7.61584C14.3262 8.38444 12.6546 9.41524 10.9914 11.085C9.32641 12.756 8.30401 14.4306 7.54081 16.4046C6.80221 18.3144 6.30121 20.496 6.16081 23.6898C6.01981 26.8902 5.98801 27.9108 6.00361 36.0576C6.01921 44.2032 6.05521 45.2256 6.20761 48.4266C6.36001 51.618 6.86941 53.7972 7.61581 55.7034C8.38561 57.6756 9.41521 59.3466 11.0856 61.0104C12.7554 62.6742 14.4312 63.696 16.4064 64.4598C18.3144 65.1978 20.4966 65.7 23.6898 65.8398C26.8896 65.9808 27.9114 66.012 36.0558 65.9964C44.2038 65.9808 45.2256 65.9448 48.4254 65.793C51.6174 65.6406 53.7954 65.1294 55.7028 64.3848C57.675 63.6132 59.3466 62.5854 61.0098 60.915C62.673 59.2452 63.6954 57.5694 64.4586 55.5942C65.1972 53.6862 65.7 51.504 65.8386 48.3126C65.9784 45.111 66.012 44.0874 65.9964 35.9424ZM36.0288 51.402C27.5226 51.4188 20.613 44.5368 20.5962 36.0288C20.5794 27.5226 27.4632 20.6118 35.9694 20.595C44.4774 20.5782 51.3882 27.4644 51.405 35.9694C51.4212 44.4774 44.5356 51.3858 36.0288 51.402ZM51.9882 23.5548C50.0016 23.5584 48.3858 21.9498 48.3822 19.9632C48.378 17.9766 49.9872 16.3608 51.975 16.3572C53.9628 16.3536 55.578 17.9628 55.5822 19.95C55.5852 21.9366 53.976 23.5506 51.9882 23.5548Z" fill="#595959"/>
</g>
</svg>
