<svg width="72" height="72" viewBox="0 0 72 72" fill="none" xmlns="http://www.w3.org/2000/svg">
<path d="M64.7505 21.5591C64.059 18.976 62.0289 16.946 59.4459 16.2545C54.7635 15 36 15 36 15C36 15 17.2364 15 12.5591 16.2545C9.97596 16.946 7.94601 18.976 7.25454 21.5591C6 26.2364 6 36.0009 6 36.0009C6 36.0009 6 45.7656 7.25454 50.4429C7.94601 53.0259 9.97596 55.056 12.5591 55.7475C17.2364 57.0021 36 57.0021 36 57.0021C36 57.0021 54.7635 57.0021 59.4408 55.7475C62.0241 55.056 64.0539 53.0259 64.7454 50.4429C66 45.7656 66 36.0009 66 36.0009C66 36.0009 66 26.2364 64.7454 21.5591H64.7505ZM29.999 45V27.002L45.5868 36.0009L29.999 45Z" fill="#595959"/>
</svg>
